<mxfile host="Electron" modified="2023-07-04T20:43:18.643Z" agent="Mozilla/5.0 (Macintosh; Intel Mac OS X 10_15_7) AppleWebKit/537.36 (KHTML, like Gecko) draw.io/21.5.1 Chrome/112.0.5615.204 Electron/24.6.0 Safari/537.36" etag="q9dQhSUrqIzy9YQIkflY" version="21.5.1" type="device">
  <diagram name="LM317_control_loop" id="CfbU-UZbzODCSInh7YNL">
    <mxGraphModel dx="1535" dy="470" grid="1" gridSize="10" guides="1" tooltips="1" connect="1" arrows="1" fold="1" page="1" pageScale="1" pageWidth="850" pageHeight="1100" math="1" shadow="0">
      <root>
        <mxCell id="0" />
        <mxCell id="1" parent="0" />
        <mxCell id="HTgfW2GtzDQ284N6ZfEF-29" value="" style="group;strokeColor=default;dashed=1;dashPattern=12 12;" vertex="1" connectable="0" parent="1">
          <mxGeometry x="190" y="200" width="340" height="280" as="geometry" />
        </mxCell>
        <mxCell id="BrSnGpJxUNI3N1HmLlDT-1" value="" style="triangle;whiteSpace=wrap;html=1;fillColor=none;" parent="HTgfW2GtzDQ284N6ZfEF-29" vertex="1">
          <mxGeometry x="120" y="80" width="120" height="120" as="geometry" />
        </mxCell>
        <mxCell id="HTgfW2GtzDQ284N6ZfEF-2" value="" style="endArrow=none;html=1;rounded=0;" edge="1" parent="HTgfW2GtzDQ284N6ZfEF-29">
          <mxGeometry width="50" height="50" relative="1" as="geometry">
            <mxPoint x="130" y="170" as="sourcePoint" />
            <mxPoint x="150" y="170" as="targetPoint" />
          </mxGeometry>
        </mxCell>
        <mxCell id="HTgfW2GtzDQ284N6ZfEF-5" value="" style="group" vertex="1" connectable="0" parent="HTgfW2GtzDQ284N6ZfEF-29">
          <mxGeometry x="130" y="100" width="20" height="20" as="geometry" />
        </mxCell>
        <mxCell id="HTgfW2GtzDQ284N6ZfEF-3" value="" style="endArrow=none;html=1;rounded=0;" edge="1" parent="HTgfW2GtzDQ284N6ZfEF-5">
          <mxGeometry width="50" height="50" relative="1" as="geometry">
            <mxPoint y="10" as="sourcePoint" />
            <mxPoint x="20" y="10" as="targetPoint" />
          </mxGeometry>
        </mxCell>
        <mxCell id="HTgfW2GtzDQ284N6ZfEF-4" value="" style="endArrow=none;html=1;rounded=0;" edge="1" parent="HTgfW2GtzDQ284N6ZfEF-5">
          <mxGeometry width="50" height="50" relative="1" as="geometry">
            <mxPoint x="10" y="20" as="sourcePoint" />
            <mxPoint x="10" as="targetPoint" />
          </mxGeometry>
        </mxCell>
        <mxCell id="HTgfW2GtzDQ284N6ZfEF-6" value="" style="endArrow=none;html=1;rounded=0;entryX=0;entryY=0.25;entryDx=0;entryDy=0;" edge="1" parent="HTgfW2GtzDQ284N6ZfEF-29" target="BrSnGpJxUNI3N1HmLlDT-1">
          <mxGeometry width="50" height="50" relative="1" as="geometry">
            <mxPoint x="80" y="110" as="sourcePoint" />
            <mxPoint x="90" y="120" as="targetPoint" />
          </mxGeometry>
        </mxCell>
        <mxCell id="HTgfW2GtzDQ284N6ZfEF-14" value="" style="group" vertex="1" connectable="0" parent="HTgfW2GtzDQ284N6ZfEF-29">
          <mxGeometry x="60" y="80" width="30" height="60" as="geometry" />
        </mxCell>
        <mxCell id="HTgfW2GtzDQ284N6ZfEF-7" value="" style="endArrow=none;html=1;rounded=0;" edge="1" parent="HTgfW2GtzDQ284N6ZfEF-14">
          <mxGeometry width="50" height="50" relative="1" as="geometry">
            <mxPoint y="50" as="sourcePoint" />
            <mxPoint x="20" y="30" as="targetPoint" />
          </mxGeometry>
        </mxCell>
        <mxCell id="HTgfW2GtzDQ284N6ZfEF-8" value="" style="endArrow=none;html=1;rounded=0;" edge="1" parent="HTgfW2GtzDQ284N6ZfEF-14">
          <mxGeometry width="50" height="50" relative="1" as="geometry">
            <mxPoint y="10" as="sourcePoint" />
            <mxPoint x="20" y="30" as="targetPoint" />
          </mxGeometry>
        </mxCell>
        <mxCell id="HTgfW2GtzDQ284N6ZfEF-9" value="" style="endArrow=none;html=1;rounded=0;" edge="1" parent="HTgfW2GtzDQ284N6ZfEF-14">
          <mxGeometry width="50" height="50" relative="1" as="geometry">
            <mxPoint y="50" as="sourcePoint" />
            <mxPoint y="10" as="targetPoint" />
          </mxGeometry>
        </mxCell>
        <mxCell id="HTgfW2GtzDQ284N6ZfEF-10" value="" style="endArrow=none;html=1;rounded=0;" edge="1" parent="HTgfW2GtzDQ284N6ZfEF-14">
          <mxGeometry width="50" height="50" relative="1" as="geometry">
            <mxPoint x="20" y="50" as="sourcePoint" />
            <mxPoint x="20" y="10" as="targetPoint" />
          </mxGeometry>
        </mxCell>
        <mxCell id="HTgfW2GtzDQ284N6ZfEF-11" value="" style="endArrow=none;html=1;rounded=0;" edge="1" parent="HTgfW2GtzDQ284N6ZfEF-14">
          <mxGeometry width="50" height="50" relative="1" as="geometry">
            <mxPoint x="10" y="60" as="sourcePoint" />
            <mxPoint x="20" y="50" as="targetPoint" />
          </mxGeometry>
        </mxCell>
        <mxCell id="HTgfW2GtzDQ284N6ZfEF-13" value="" style="endArrow=none;html=1;rounded=0;" edge="1" parent="HTgfW2GtzDQ284N6ZfEF-14">
          <mxGeometry width="50" height="50" relative="1" as="geometry">
            <mxPoint x="20" y="10" as="sourcePoint" />
            <mxPoint x="30" as="targetPoint" />
          </mxGeometry>
        </mxCell>
        <mxCell id="HTgfW2GtzDQ284N6ZfEF-15" value="" style="endArrow=none;html=1;rounded=0;entryX=0;entryY=0.25;entryDx=0;entryDy=0;" edge="1" parent="HTgfW2GtzDQ284N6ZfEF-29">
          <mxGeometry width="50" height="50" relative="1" as="geometry">
            <mxPoint x="20" y="109.82999999999998" as="sourcePoint" />
            <mxPoint x="60" y="109.82999999999998" as="targetPoint" />
          </mxGeometry>
        </mxCell>
        <mxCell id="HTgfW2GtzDQ284N6ZfEF-16" value="" style="endArrow=none;html=1;rounded=0;entryX=0;entryY=0.25;entryDx=0;entryDy=0;" edge="1" parent="HTgfW2GtzDQ284N6ZfEF-29">
          <mxGeometry width="50" height="50" relative="1" as="geometry">
            <mxPoint x="240" y="139.64999999999998" as="sourcePoint" />
            <mxPoint x="280" y="139.64999999999998" as="targetPoint" />
          </mxGeometry>
        </mxCell>
        <mxCell id="HTgfW2GtzDQ284N6ZfEF-17" value="" style="endArrow=none;html=1;rounded=0;" edge="1" parent="HTgfW2GtzDQ284N6ZfEF-29">
          <mxGeometry width="50" height="50" relative="1" as="geometry">
            <mxPoint x="280" y="180" as="sourcePoint" />
            <mxPoint x="280" y="100" as="targetPoint" />
          </mxGeometry>
        </mxCell>
        <mxCell id="HTgfW2GtzDQ284N6ZfEF-18" value="" style="endArrow=classic;html=1;rounded=0;" edge="1" parent="HTgfW2GtzDQ284N6ZfEF-29">
          <mxGeometry width="50" height="50" relative="1" as="geometry">
            <mxPoint x="280" y="160" as="sourcePoint" />
            <mxPoint x="320" y="180" as="targetPoint" />
          </mxGeometry>
        </mxCell>
        <mxCell id="HTgfW2GtzDQ284N6ZfEF-19" value="" style="endArrow=none;html=1;rounded=0;" edge="1" parent="HTgfW2GtzDQ284N6ZfEF-29">
          <mxGeometry width="50" height="50" relative="1" as="geometry">
            <mxPoint x="280" y="120" as="sourcePoint" />
            <mxPoint x="320" y="100" as="targetPoint" />
          </mxGeometry>
        </mxCell>
        <mxCell id="HTgfW2GtzDQ284N6ZfEF-20" value="" style="endArrow=none;html=1;rounded=0;" edge="1" parent="HTgfW2GtzDQ284N6ZfEF-29">
          <mxGeometry width="50" height="50" relative="1" as="geometry">
            <mxPoint x="320" y="100" as="sourcePoint" />
            <mxPoint x="320" y="20" as="targetPoint" />
          </mxGeometry>
        </mxCell>
        <mxCell id="HTgfW2GtzDQ284N6ZfEF-21" value="" style="endArrow=none;html=1;rounded=0;" edge="1" parent="HTgfW2GtzDQ284N6ZfEF-29">
          <mxGeometry width="50" height="50" relative="1" as="geometry">
            <mxPoint x="320" y="260" as="sourcePoint" />
            <mxPoint x="320" y="180" as="targetPoint" />
          </mxGeometry>
        </mxCell>
        <mxCell id="HTgfW2GtzDQ284N6ZfEF-22" value="" style="endArrow=none;html=1;rounded=0;" edge="1" parent="HTgfW2GtzDQ284N6ZfEF-29">
          <mxGeometry width="50" height="50" relative="1" as="geometry">
            <mxPoint x="80" y="230" as="sourcePoint" />
            <mxPoint x="320" y="230" as="targetPoint" />
          </mxGeometry>
        </mxCell>
        <mxCell id="HTgfW2GtzDQ284N6ZfEF-23" value="" style="endArrow=none;html=1;rounded=0;" edge="1" parent="HTgfW2GtzDQ284N6ZfEF-29">
          <mxGeometry width="50" height="50" relative="1" as="geometry">
            <mxPoint x="80" y="230" as="sourcePoint" />
            <mxPoint x="80" y="170" as="targetPoint" />
          </mxGeometry>
        </mxCell>
        <mxCell id="HTgfW2GtzDQ284N6ZfEF-24" value="" style="endArrow=none;html=1;rounded=0;entryX=0;entryY=0.25;entryDx=0;entryDy=0;" edge="1" parent="HTgfW2GtzDQ284N6ZfEF-29">
          <mxGeometry width="50" height="50" relative="1" as="geometry">
            <mxPoint x="80" y="170" as="sourcePoint" />
            <mxPoint x="120" y="170" as="targetPoint" />
          </mxGeometry>
        </mxCell>
        <mxCell id="HTgfW2GtzDQ284N6ZfEF-25" value="" style="whiteSpace=wrap;html=1;aspect=fixed;" vertex="1" parent="HTgfW2GtzDQ284N6ZfEF-29">
          <mxGeometry y="100" width="20" height="20" as="geometry" />
        </mxCell>
        <mxCell id="HTgfW2GtzDQ284N6ZfEF-26" value="" style="whiteSpace=wrap;html=1;aspect=fixed;" vertex="1" parent="HTgfW2GtzDQ284N6ZfEF-29">
          <mxGeometry x="310" y="260" width="20" height="20" as="geometry" />
        </mxCell>
        <mxCell id="HTgfW2GtzDQ284N6ZfEF-27" value="" style="whiteSpace=wrap;html=1;aspect=fixed;" vertex="1" parent="HTgfW2GtzDQ284N6ZfEF-29">
          <mxGeometry x="310" width="20" height="20" as="geometry" />
        </mxCell>
        <mxCell id="HTgfW2GtzDQ284N6ZfEF-42" value="1.25V" style="text;html=1;strokeColor=none;fillColor=none;align=center;verticalAlign=middle;whiteSpace=wrap;rounded=0;" vertex="1" parent="HTgfW2GtzDQ284N6ZfEF-29">
          <mxGeometry x="30" y="60" width="60" height="30" as="geometry" />
        </mxCell>
        <mxCell id="HTgfW2GtzDQ284N6ZfEF-45" value="$$V_\text{plus}$$" style="text;html=1;strokeColor=none;fillColor=none;align=center;verticalAlign=middle;whiteSpace=wrap;rounded=0;" vertex="1" parent="HTgfW2GtzDQ284N6ZfEF-29">
          <mxGeometry x="130" y="70" width="60" height="30" as="geometry" />
        </mxCell>
        <mxCell id="HTgfW2GtzDQ284N6ZfEF-49" value="" style="endArrow=none;html=1;rounded=0;" edge="1" parent="HTgfW2GtzDQ284N6ZfEF-29">
          <mxGeometry width="50" height="50" relative="1" as="geometry">
            <mxPoint x="30" y="110" as="sourcePoint" />
            <mxPoint x="50" y="40" as="targetPoint" />
            <Array as="points">
              <mxPoint x="30" y="40" />
            </Array>
          </mxGeometry>
        </mxCell>
        <mxCell id="HTgfW2GtzDQ284N6ZfEF-50" value="" style="pointerEvents=1;verticalLabelPosition=bottom;shadow=0;dashed=0;align=center;html=1;verticalAlign=top;shape=mxgraph.electrical.signal_sources.source;aspect=fixed;points=[[0.5,0,0],[1,0.5,0],[0.5,1,0],[0,0.5,0]];elSignalType=dc1;rotation=-180;" vertex="1" parent="HTgfW2GtzDQ284N6ZfEF-29">
          <mxGeometry x="50" y="20" width="40" height="40" as="geometry" />
        </mxCell>
        <mxCell id="HTgfW2GtzDQ284N6ZfEF-55" value="$$I_\text{adj}$$" style="text;html=1;strokeColor=none;fillColor=none;align=center;verticalAlign=middle;whiteSpace=wrap;rounded=0;" vertex="1" parent="HTgfW2GtzDQ284N6ZfEF-29">
          <mxGeometry x="90" y="10" width="60" height="30" as="geometry" />
        </mxCell>
        <mxCell id="HTgfW2GtzDQ284N6ZfEF-64" value="" style="curved=1;endArrow=classic;html=1;rounded=0;dashed=1;" edge="1" parent="HTgfW2GtzDQ284N6ZfEF-29">
          <mxGeometry width="50" height="50" relative="1" as="geometry">
            <mxPoint x="240" y="160" as="sourcePoint" />
            <mxPoint x="110" y="180" as="targetPoint" />
            <Array as="points">
              <mxPoint x="350" y="220" />
              <mxPoint x="100" y="220" />
            </Array>
          </mxGeometry>
        </mxCell>
        <mxCell id="HTgfW2GtzDQ284N6ZfEF-28" value="" style="pointerEvents=1;verticalLabelPosition=bottom;shadow=0;dashed=0;align=center;html=1;verticalAlign=top;shape=mxgraph.electrical.resistors.resistor_1;" vertex="1" parent="1">
          <mxGeometry x="280" y="530" width="100" height="20" as="geometry" />
        </mxCell>
        <mxCell id="HTgfW2GtzDQ284N6ZfEF-33" value="" style="endArrow=none;html=1;rounded=0;exitX=1;exitY=0.5;exitDx=0;exitDy=0;exitPerimeter=0;" edge="1" parent="1" source="HTgfW2GtzDQ284N6ZfEF-28">
          <mxGeometry width="50" height="50" relative="1" as="geometry">
            <mxPoint x="510" y="560" as="sourcePoint" />
            <mxPoint x="510" y="480" as="targetPoint" />
            <Array as="points">
              <mxPoint x="510" y="540" />
            </Array>
          </mxGeometry>
        </mxCell>
        <mxCell id="HTgfW2GtzDQ284N6ZfEF-34" value="" style="pointerEvents=1;verticalLabelPosition=bottom;shadow=0;dashed=0;align=center;html=1;verticalAlign=top;shape=mxgraph.electrical.resistors.resistor_1;rotation=-90;" vertex="1" parent="1">
          <mxGeometry x="70" y="640" width="100" height="20" as="geometry" />
        </mxCell>
        <mxCell id="HTgfW2GtzDQ284N6ZfEF-35" value="" style="endArrow=none;html=1;rounded=0;exitX=0;exitY=0.5;exitDx=0;exitDy=0;entryX=0;entryY=0.5;entryDx=0;entryDy=0;entryPerimeter=0;" edge="1" parent="1" source="HTgfW2GtzDQ284N6ZfEF-25" target="HTgfW2GtzDQ284N6ZfEF-28">
          <mxGeometry width="50" height="50" relative="1" as="geometry">
            <mxPoint x="100" y="500" as="sourcePoint" />
            <mxPoint x="280" y="560" as="targetPoint" />
            <Array as="points">
              <mxPoint x="120" y="310" />
              <mxPoint x="120" y="540" />
            </Array>
          </mxGeometry>
        </mxCell>
        <mxCell id="HTgfW2GtzDQ284N6ZfEF-36" value="" style="endArrow=none;html=1;rounded=0;exitX=1;exitY=0.5;exitDx=0;exitDy=0;exitPerimeter=0;" edge="1" parent="1" source="HTgfW2GtzDQ284N6ZfEF-34">
          <mxGeometry width="50" height="50" relative="1" as="geometry">
            <mxPoint x="70" y="610" as="sourcePoint" />
            <mxPoint x="120" y="540" as="targetPoint" />
          </mxGeometry>
        </mxCell>
        <mxCell id="HTgfW2GtzDQ284N6ZfEF-37" value="" style="endArrow=none;html=1;rounded=0;exitX=1;exitY=0.5;exitDx=0;exitDy=0;exitPerimeter=0;" edge="1" parent="1">
          <mxGeometry width="50" height="50" relative="1" as="geometry">
            <mxPoint x="119.55" y="740" as="sourcePoint" />
            <mxPoint x="119.55" y="700" as="targetPoint" />
          </mxGeometry>
        </mxCell>
        <mxCell id="HTgfW2GtzDQ284N6ZfEF-38" value="" style="triangle;whiteSpace=wrap;html=1;rotation=90;" vertex="1" parent="1">
          <mxGeometry x="105" y="735" width="30" height="40" as="geometry" />
        </mxCell>
        <mxCell id="HTgfW2GtzDQ284N6ZfEF-40" value="$$R_1$$" style="text;html=1;strokeColor=none;fillColor=none;align=center;verticalAlign=middle;whiteSpace=wrap;rounded=0;" vertex="1" parent="1">
          <mxGeometry x="300" y="500" width="60" height="30" as="geometry" />
        </mxCell>
        <mxCell id="HTgfW2GtzDQ284N6ZfEF-41" value="$$R_2$$" style="text;html=1;strokeColor=none;fillColor=none;align=right;verticalAlign=middle;whiteSpace=wrap;rounded=0;" vertex="1" parent="1">
          <mxGeometry x="50" y="635" width="60" height="30" as="geometry" />
        </mxCell>
        <mxCell id="HTgfW2GtzDQ284N6ZfEF-43" value="$$V_\text{plus}-1.25$$" style="text;html=1;strokeColor=none;fillColor=none;align=center;verticalAlign=middle;whiteSpace=wrap;rounded=0;" vertex="1" parent="1">
          <mxGeometry x="50" y="525" width="60" height="30" as="geometry" />
        </mxCell>
        <mxCell id="HTgfW2GtzDQ284N6ZfEF-46" value="$$I_{R_1}=(V_\text{plus} - (V_\text{plus} - 1.25))/R1$$" style="text;html=1;strokeColor=none;fillColor=none;align=center;verticalAlign=middle;whiteSpace=wrap;rounded=0;" vertex="1" parent="1">
          <mxGeometry x="250" y="570" width="200" height="30" as="geometry" />
        </mxCell>
        <mxCell id="HTgfW2GtzDQ284N6ZfEF-47" value="$$V_\text{plus}-1.25=(I_\text{adj}+I_{R_1})R_2$$" style="text;html=1;strokeColor=none;fillColor=none;align=left;verticalAlign=middle;whiteSpace=wrap;rounded=0;" vertex="1" parent="1">
          <mxGeometry x="140" y="640" width="240" height="25" as="geometry" />
        </mxCell>
        <mxCell id="HTgfW2GtzDQ284N6ZfEF-54" value="" style="endArrow=none;html=1;rounded=0;" edge="1" parent="1">
          <mxGeometry width="50" height="50" relative="1" as="geometry">
            <mxPoint x="510" y="240" as="sourcePoint" />
            <mxPoint x="280" y="240" as="targetPoint" />
          </mxGeometry>
        </mxCell>
        <mxCell id="HTgfW2GtzDQ284N6ZfEF-56" value="$$V_\text{out} = V_\text{plus}$$" style="text;html=1;strokeColor=none;fillColor=none;align=center;verticalAlign=middle;whiteSpace=wrap;rounded=0;" vertex="1" parent="1">
          <mxGeometry x="520" y="480" width="60" height="30" as="geometry" />
        </mxCell>
        <mxCell id="HTgfW2GtzDQ284N6ZfEF-57" value="$$I_{R_1}=1.25/R1$$" style="text;html=1;strokeColor=none;fillColor=none;align=center;verticalAlign=middle;whiteSpace=wrap;rounded=0;" vertex="1" parent="1">
          <mxGeometry x="250" y="590" width="200" height="30" as="geometry" />
        </mxCell>
        <mxCell id="HTgfW2GtzDQ284N6ZfEF-59" value="$$I_\text{adj}$$" style="text;html=1;strokeColor=none;fillColor=none;align=center;verticalAlign=middle;whiteSpace=wrap;rounded=0;" vertex="1" parent="1">
          <mxGeometry x="-10" y="380" width="200" height="30" as="geometry" />
        </mxCell>
        <mxCell id="HTgfW2GtzDQ284N6ZfEF-60" value="" style="endArrow=classic;html=1;rounded=0;dashed=1;dashPattern=1 1;" edge="1" parent="1">
          <mxGeometry width="50" height="50" relative="1" as="geometry">
            <mxPoint x="360" y="570" as="sourcePoint" />
            <mxPoint x="300" y="570" as="targetPoint" />
          </mxGeometry>
        </mxCell>
        <mxCell id="HTgfW2GtzDQ284N6ZfEF-61" value="" style="endArrow=classic;html=1;rounded=0;dashed=1;dashPattern=1 1;" edge="1" parent="1">
          <mxGeometry width="50" height="50" relative="1" as="geometry">
            <mxPoint x="105" y="365" as="sourcePoint" />
            <mxPoint x="105" y="425" as="targetPoint" />
          </mxGeometry>
        </mxCell>
        <mxCell id="HTgfW2GtzDQ284N6ZfEF-62" value="$$V_\text{plus}=1.25(1+\frac{R_2}{R_1}) + I_\text{adj} \cdot R_2$$" style="text;html=1;strokeColor=none;fillColor=none;align=left;verticalAlign=middle;whiteSpace=wrap;rounded=0;" vertex="1" parent="1">
          <mxGeometry x="140" y="670" width="240" height="20" as="geometry" />
        </mxCell>
        <mxCell id="HTgfW2GtzDQ284N6ZfEF-63" value="$$V_\text{in}$$" style="text;html=1;strokeColor=none;fillColor=none;align=center;verticalAlign=middle;whiteSpace=wrap;rounded=0;" vertex="1" parent="1">
          <mxGeometry x="480" y="170" width="60" height="30" as="geometry" />
        </mxCell>
      </root>
    </mxGraphModel>
  </diagram>
</mxfile>
